<svg width="32" height="32" viewBox="0 0 32 32" fill="none" xmlns="http://www.w3.org/2000/svg">
<rect width="32" height="32" rx="10" fill="url(#paint0_linear_4_2)"/>
<path d="M12.6341 7.43903C12.6341 8.53366 12.6341 9.62829 12.6341 10.7561C17.0449 10.7561 21.4556 10.7561 26 10.7561C26 11.8507 26 12.9454 26 14.0732C19.4 14.0732 12.8 14.0732 6 14.0732C6.18478 13.8576 6.3662 13.6511 6.56644 13.4518C6.59234 13.4258 6.61829 13.3998 6.64498 13.373C6.73078 13.287 6.81678 13.2011 6.90278 13.1153C6.96473 13.0533 7.02673 12.9912 7.08868 12.9292C7.25615 12.7615 7.42376 12.5939 7.59141 12.4264C7.76693 12.251 7.94229 12.0755 8.11771 11.9001C8.41195 11.6058 8.70624 11.3116 9.00059 11.0174C9.34137 10.6769 9.68195 10.3363 10.0224 9.99551C10.3148 9.70293 10.6072 9.41049 10.8998 9.1181C11.0745 8.94342 11.2492 8.76873 11.4238 8.59395C11.5876 8.43 11.7516 8.2661 11.9157 8.10234C11.976 8.04205 12.0363 7.98171 12.0966 7.92132C12.1785 7.83932 12.2605 7.75746 12.3426 7.67561C12.3546 7.66351 12.3546 7.66351 12.4158 7.60215C12.5798 7.43903 12.5798 7.43903 12.6341 7.43903Z" fill="white"/>
<path d="M19.3659 15.9268C19.3659 17.0215 19.3659 18.1161 19.3659 19.2439C14.9551 19.2439 10.5444 19.2439 6 19.2439C6 20.3385 6 21.4332 6 22.561C12.6 22.561 19.2 22.561 26 22.561C25.8152 22.3454 25.6338 22.1389 25.4336 21.9396C25.4077 21.9136 25.3817 21.8876 25.355 21.8608C25.2692 21.7748 25.1832 21.6889 25.0972 21.6031C25.0353 21.5411 24.9733 21.479 24.9113 21.417C24.7439 21.2493 24.5762 21.0817 24.4086 20.9142C24.2331 20.7388 24.0577 20.5633 23.8823 20.3879C23.588 20.0936 23.2938 19.7994 22.9994 19.5052C22.6586 19.1647 22.318 18.8241 21.9776 18.4833C21.6852 18.1907 21.3928 17.8983 21.1002 17.6059C20.9255 17.4312 20.7508 17.2565 20.5762 17.0818C20.4124 16.9178 20.2484 16.7539 20.0843 16.5902C20.024 16.5299 19.9637 16.4695 19.9034 16.4091C19.8215 16.3271 19.7395 16.2453 19.6574 16.1634C19.6454 16.1513 19.6454 16.1513 19.5842 16.09C19.4202 15.9268 19.4202 15.9268 19.3659 15.9268Z" fill="white"/>
<defs>
<linearGradient id="paint0_linear_4_2" x1="0" y1="0" x2="32" y2="32" gradientUnits="userSpaceOnUse">
<stop stop-color="#6C63FF"/>
<stop offset="0.0833333" stop-color="#6961FD"/>
<stop offset="0.166667" stop-color="#675EFB"/>
<stop offset="0.25" stop-color="#655CF8"/>
<stop offset="0.333333" stop-color="#625AF6"/>
<stop offset="0.416667" stop-color="#6057F4"/>
<stop offset="0.5" stop-color="#5D55F2"/>
<stop offset="0.583333" stop-color="#5B52F0"/>
<stop offset="0.666667" stop-color="#5850EE"/>
<stop offset="0.75" stop-color="#564EEB"/>
<stop offset="0.833333" stop-color="#544BE9"/>
<stop offset="0.916667" stop-color="#5149E7"/>
<stop offset="1" stop-color="#4F46E5"/>
</linearGradient>
</defs>
</svg>
